<?xml version="1.0" encoding="UTF-8" standalone="no"?>
<!-- Created with Inkscape (http://www.inkscape.org/) -->

<svg
   xmlns:dc="http://purl.org/dc/elements/1.1/"
   xmlns:cc="http://creativecommons.org/ns#"
   xmlns:rdf="http://www.w3.org/1999/02/22-rdf-syntax-ns#"
   xmlns:svg="http://www.w3.org/2000/svg"
   xmlns="http://www.w3.org/2000/svg"
   xmlns:sodipodi="http://sodipodi.sourceforge.net/DTD/sodipodi-0.dtd"
   xmlns:inkscape="http://www.inkscape.org/namespaces/inkscape"
   id="svg2"
   version="1.1"
   inkscape:version="0.48.2 r9819"
   width="350"
   height="500"
   xml:space="preserve"
   sodipodi:docname="map.svg"><metadata
     id="metadata8"><rdf:RDF><cc:Work
         rdf:about=""><dc:format>image/svg+xml</dc:format><dc:type
           rdf:resource="http://purl.org/dc/dcmitype/StillImage" /></cc:Work></rdf:RDF></metadata><defs
     id="defs6"><clipPath
       clipPathUnits="userSpaceOnUse"
       id="clipPath18"><path
         d="m 0.0351563,0.335938 2478.9300437,0 0,3507.659962 -2478.9300437,0 0,-3507.659962 z"
         id="path20"
         inkscape:connector-curvature="0" /></clipPath><clipPath
       clipPathUnits="userSpaceOnUse"
       id="clipPath42"><path
         d="m 160.02,2978.64 435.457,0 0,319.719 -435.457,0 0,-319.719 z"
         id="path44"
         inkscape:connector-curvature="0" /></clipPath><clipPath
       clipPathUnits="userSpaceOnUse"
       id="clipPath54"><path
         d="m 142.52,50.332 452.957,0 0,3408.008 -452.957,0 0,-3408.008"
         id="path56"
         inkscape:connector-curvature="0" /></clipPath><clipPath
       clipPathUnits="userSpaceOnUse"
       id="clipPath62"><path
         d="m 0,0 0,3508 2479,0 L 2479,0 0,0 z"
         id="path64"
         inkscape:connector-curvature="0" /></clipPath><clipPath
       clipPathUnits="userSpaceOnUse"
       id="clipPath76"><path
         d="m 1884.86,3000.38 307.96,0 0,276.23 -307.96,0 0,-276.23 z"
         id="path78"
         inkscape:connector-curvature="0" /></clipPath><clipPath
       clipPathUnits="userSpaceOnUse"
       id="clipPath88"><path
         d="m 1792.36,50.332 490.46,0 0,3408.008 -490.46,0 0,-3408.008"
         id="path90"
         inkscape:connector-curvature="0" /></clipPath><clipPath
       clipPathUnits="userSpaceOnUse"
       id="clipPath98"><path
         d="m 0,0 0,3508 2479,0 L 2479,0 0,0 z"
         id="path100"
         inkscape:connector-curvature="0" /></clipPath><clipPath
       clipPathUnits="userSpaceOnUse"
       id="clipPath118"><path
         d="m 612.727,92.6602 -442.457,0 0,282.2228 442.457,0 0,-282.2228"
         id="path120"
         inkscape:connector-curvature="0" /></clipPath><clipPath
       clipPathUnits="userSpaceOnUse"
       id="clipPath130"><path
         d="m 144.77,50.332 490.453,0 0,3408.008 -490.453,0 0,-3408.008"
         id="path132"
         inkscape:connector-curvature="0" /></clipPath><clipPath
       clipPathUnits="userSpaceOnUse"
       id="clipPath140"><path
         d="m 0,0 0,3508 2479,0 L 2479,0 0,0 z"
         id="path142"
         inkscape:connector-curvature="0" /></clipPath><clipPath
       clipPathUnits="userSpaceOnUse"
       id="clipPath154"><path
         d="m 1932.6,132.656 210.23,0 0,242.227 -210.23,0 0,-242.227 z"
         id="path156"
         inkscape:connector-curvature="0" /></clipPath><clipPath
       clipPathUnits="userSpaceOnUse"
       id="clipPath166"><path
         d="m 0,0 0,3508 2479,0 L 2479,0 0,0 z"
         id="path168"
         inkscape:connector-curvature="0" /></clipPath><clipPath
       clipPathUnits="userSpaceOnUse"
       id="clipPath176"><path
         d="m 50.0313,50.332 2378.9387,0 0,3408.008 -2378.9387,0 0,-3408.008"
         id="path178"
         inkscape:connector-curvature="0" /></clipPath><clipPath
       clipPathUnits="userSpaceOnUse"
       id="clipPath210"><path
         d="m 492.488,469.375 1495.102,0 0,2131.295 -1495.102,0 0,-2131.295 z"
         id="path212"
         inkscape:connector-curvature="0" /></clipPath><clipPath
       clipPathUnits="userSpaceOnUse"
       id="clipPath222"><path
         d="m 0,0 0,3508 2479,0 L 2479,0 0,0 z"
         id="path224"
         inkscape:connector-curvature="0" /></clipPath></defs><sodipodi:namedview
     pagecolor="#ffffff"
     bordercolor="#666666"
     borderopacity="1"
     objecttolerance="10"
     gridtolerance="10"
     guidetolerance="10"
     inkscape:pageopacity="0"
     inkscape:pageshadow="2"
     inkscape:window-width="1280"
     inkscape:window-height="776"
     id="namedview4"
     showgrid="false"
     inkscape:zoom="0.5"
     inkscape:cx="247.44071"
     inkscape:cy="333.07081"
     inkscape:window-x="0"
     inkscape:window-y="24"
     inkscape:window-maximized="1"
     inkscape:current-layer="g10"
     showguides="true"
     inkscape:guide-bbox="true" /><g
     id="g10"
     inkscape:groupmode="layer"
     inkscape:label="e2012_rules_en_final"
     transform="matrix(1.25,0,0,-1.25,0,500)"><path
       style="fill:#32ffff;fill-opacity:1;stroke:#000000;stroke-width:0.80000001;stroke-miterlimit:4;stroke-opacity:1;stroke-dasharray:none;stroke-dashoffset:0"
       d="m 494.98067,431.4717 0.32806,-473.219683 -702.30445,-0.137189 -0.27342,473.415372 z"
       id="path3205"
       inkscape:connector-curvature="0"
       sodipodi:nodetypes="ccccc" /><path
       style="fill:none;stroke:#000000;stroke-width:0.80000001;stroke-miterlimit:4;stroke-opacity:1;stroke-dasharray:none;stroke-dashoffset:0"
       d="m 485.95287,431.43796 0.32804,-463.601462 -692.80894,0.32521 -0.83088,462.934972 z"
       id="path3205-2"
       inkscape:connector-curvature="0"
       sodipodi:nodetypes="ccccc" /><path
       style="fill:#ff2a2a;stroke:#000000;stroke-width:0.80000001;stroke-miterlimit:4;stroke-opacity:1;stroke-dasharray:none;stroke-dashoffset:0"
       d="m 508.53642,453.92345 0,-18.92107 -18.2904,0.1576 -0.1576,18.92109 z"
       id="path3862"
       inkscape:connector-curvature="0" /><path
       style="fill:#500080;fill-opacity:0.92881356;stroke:#000000;stroke-width:0.80000001;stroke-miterlimit:4;stroke-opacity:1;stroke-dasharray:none;stroke-dashoffset:0"
       d="m 508.77283,214.3351 0,-18.9211 -18.29038,0.1576 -0.1576,18.92112 z"
       id="path3862-1"
       inkscape:connector-curvature="0" /><path
       style="fill:#ff2a2a;stroke:#000000;stroke-width:0.80000001;stroke-miterlimit:4;stroke-opacity:1;stroke-dasharray:none;stroke-dashoffset:0"
       d="m 508.77287,-35.581122 0,-18.921078 -18.29042,0.1576 -0.1576,18.921098 z"
       id="path3862-2"
       inkscape:connector-curvature="0" /><path
       style="fill:#500080;fill-opacity:0.92881356;stroke:#000000;stroke-width:0.80000001;stroke-miterlimit:4;stroke-opacity:1;stroke-dasharray:none;stroke-dashoffset:0"
       d="m -211.0961,455.18491 0,-18.92109 -18.2904,0.1576 -0.1576,18.92109 z"
       id="path3862-9"
       inkscape:connector-curvature="0" /><path
       style="fill:#ff2a2a;stroke:#000000;stroke-width:0.80000001;stroke-miterlimit:4;stroke-opacity:1;stroke-dasharray:none;stroke-dashoffset:0"
       d="m -211.8845,214.49275 0,-18.92106 -18.29039,0.1576 -0.1576,18.92109 z"
       id="path3862-93"
       inkscape:connector-curvature="0" /><path
       style="fill:#500080;fill-opacity:0.92881356;stroke:#000000;stroke-width:0.80000001;stroke-miterlimit:4;stroke-opacity:1;stroke-dasharray:none;stroke-dashoffset:0"
       d="m -211.88449,-36.132952 0,-18.921098 -18.2904,0.1576 -0.1576,18.921108 z"
       id="path3862-11"
       inkscape:connector-curvature="0" /><path
       style="fill:#500080;fill-opacity:0.92881356;stroke:#000000;stroke-width:0.80000001;stroke-miterlimit:4;stroke-opacity:1;stroke-dasharray:none;stroke-dashoffset:0"
       d="m -57.36207,-21.823922 0,-4.9668 1.10372,0 0,-1.34024 9.22406,0 6.30702,-3.86304 3.78422,0.0788 0.1576,-15.688758 -45.88367,0.0788 0.1576,19.945978 19.39412,-0.1576 0.0788,0.94606 1.02488,0 -0.1576,4.80912 z"
       id="path3912"
       inkscape:connector-curvature="0" /><path
       style="fill:#500080;fill-opacity:0.92881356;stroke:#000000;stroke-width:0.80000001;stroke-miterlimit:4;stroke-opacity:1;stroke-dasharray:none;stroke-dashoffset:0"
       d="m -47.34965,-28.209782 0.0788,-14.111998 0.0788,-0.47304 0,0.47304"
       id="path3914"
       inkscape:connector-curvature="0" /><path
       style="fill:#500080;fill-opacity:0.92881356;stroke:#000000;stroke-width:0.80000001;stroke-miterlimit:4;stroke-opacity:1;stroke-dasharray:none;stroke-dashoffset:0"
       d="m -48.76875,-28.130962 0.23654,-14.585008"
       id="path3916"
       inkscape:connector-curvature="0" /><path
       style="fill:#500080;fill-opacity:0.92881356;stroke:#000000;stroke-width:0.80000001;stroke-miterlimit:4;stroke-opacity:1;stroke-dasharray:none;stroke-dashoffset:0"
       d="m -37.02189,-42.63712 -44.62225,1e-5 -0.94598,0"
       id="path3920"
       inkscape:connector-curvature="0"
       sodipodi:nodetypes="ccc" /><path
       style="fill:#ff2a2a;stroke:#000000;stroke-width:0.80000001;stroke-miterlimit:4;stroke-opacity:1;stroke-dasharray:none;stroke-dashoffset:0"
       d="m 53.01101,-21.823922 0,-4.9668 1.10372,0 0,-1.34024 9.22406,0 6.30702,-3.86304 3.78422,0.0788 0.1576,-15.688758 -45.88368,0.0788 0.1576,19.945988 19.39413,-0.1576 0.0788,0.94605 1.02488,0 -0.15761,4.80912 z"
       id="path3912-5"
       inkscape:connector-curvature="0" /><path
       style="fill:#ff2a2a;stroke:#000000;stroke-width:0.80000001;stroke-miterlimit:4;stroke-opacity:1;stroke-dasharray:none;stroke-dashoffset:0"
       d="m 63.02343,-28.209782 0.0788,-14.111998 0.0788,-0.47304 0,0.47304"
       id="path3914-6"
       inkscape:connector-curvature="0" /><path
       style="fill:#ff2a2a;stroke:#000000;stroke-width:0.80000001;stroke-miterlimit:4;stroke-opacity:1;stroke-dasharray:none;stroke-dashoffset:0"
       d="M 61.60435,-28.130962 61.84087,-42.71597"
       id="path3916-8"
       inkscape:connector-curvature="0" /><path
       style="fill:#ff2a2a;stroke:#000000;stroke-width:0.80000001;stroke-miterlimit:4;stroke-opacity:1;stroke-dasharray:none;stroke-dashoffset:0"
       d="m 73.35119,-42.63712 -44.62226,0 -0.94598,0"
       id="path3920-9"
       inkscape:connector-curvature="0"
       sodipodi:nodetypes="ccc" /><path
       style="fill:#500080;fill-opacity:0.92881356;stroke:#000000;stroke-width:0.80000001;stroke-miterlimit:4;stroke-opacity:1;stroke-dasharray:none;stroke-dashoffset:0"
       d="m 230.08098,-21.508602 0,-4.966761 1.10372,0 0,-1.34024 9.22406,0 6.30702,-3.86306 3.78422,0.0788 0.1576,-15.688757 -45.88368,0.0788 0.1576,19.945957 19.39412,-0.1576 0.0788,0.94606 1.02488,0 -0.1576,4.80912 z"
       id="path3912-55"
       inkscape:connector-curvature="0" /><path
       style="fill:#500080;fill-opacity:0.92881356;stroke:#000000;stroke-width:0.80000001;stroke-miterlimit:4;stroke-opacity:1;stroke-dasharray:none;stroke-dashoffset:0"
       d="m 240.0934,-27.894423 0.0788,-14.111997 0.0788,-0.47304 0,0.47304"
       id="path3914-2"
       inkscape:connector-curvature="0" /><path
       style="fill:#500080;fill-opacity:0.92881356;stroke:#000000;stroke-width:0.80000001;stroke-miterlimit:4;stroke-opacity:1;stroke-dasharray:none;stroke-dashoffset:0"
       d="M 238.67428,-27.815603 238.9108,-42.40061"
       id="path3916-1"
       inkscape:connector-curvature="0" /><path
       style="fill:#500080;fill-opacity:0.92881356;stroke:#000000;stroke-width:0.80000001;stroke-miterlimit:4;stroke-opacity:1;stroke-dasharray:none;stroke-dashoffset:0"
       d="m 250.42116,-42.32176 -44.62226,0 -0.94598,0"
       id="path3920-5"
       inkscape:connector-curvature="0"
       sodipodi:nodetypes="ccc" /><path
       style="fill:#ff2a2a;stroke:#000000;stroke-width:0.80000001;stroke-miterlimit:4;stroke-opacity:1;stroke-dasharray:none;stroke-dashoffset:0"
       d="m 340.29636,-21.823922 0,-4.96678 1.10372,0 0,-1.34024 9.22406,0 6.30702,-3.863081 3.78422,0.0788 0.1576,-15.688737 -45.88368,0.0788 0.1576,19.945978 19.39412,-0.1576 0.0788,0.946039 1.02488,0 -0.1576,4.809141 z"
       id="path3912-9"
       inkscape:connector-curvature="0" /><path
       style="fill:#ff2a2a;stroke:#000000;stroke-width:0.80000001;stroke-miterlimit:4;stroke-opacity:1;stroke-dasharray:none;stroke-dashoffset:0"
       d="m 350.30878,-28.209783 0.0788,-14.111997 0.0788,-0.47304 0,0.47304"
       id="path3914-9"
       inkscape:connector-curvature="0" /><path
       style="fill:#ff2a2a;stroke:#000000;stroke-width:0.80000001;stroke-miterlimit:4;stroke-opacity:1;stroke-dasharray:none;stroke-dashoffset:0"
       d="M 348.88968,-28.130983 349.1262,-42.71599"
       id="path3916-16"
       inkscape:connector-curvature="0" /><path
       style="fill:#ff2a2a;stroke:#000000;stroke-width:0.80000001;stroke-miterlimit:4;stroke-opacity:1;stroke-dasharray:none;stroke-dashoffset:0"
       d="m 360.63654,-42.63712 -44.62226,0 -0.94598,0"
       id="path3920-2"
       inkscape:connector-curvature="0"
       sodipodi:nodetypes="ccc" /><path
       style="fill:#000000;stroke:#000000;stroke-width:0.80000001;stroke-miterlimit:4;stroke-opacity:1;stroke-dasharray:none;stroke-dashoffset:0"
       d="m 370.41236,322.26418 -29.64304,0 -0.31536,-343.733302 -5.834,0 0.24294,349.650502 35.51074,-0.0556 z"
       id="path3988"
       inkscape:connector-curvature="0" /><path
       style="fill:#000000;stroke:#000000;stroke-width:0.80000001;stroke-miterlimit:4;stroke-opacity:1;stroke-dasharray:none;stroke-dashoffset:0"
       d="m -92.0477,322.10018 29.64304,0 0.31536,-343.733293 5.83399,-9e-6 -0.24294,349.650502 -35.51073,-0.0556 z"
       id="path3988-2"
       inkscape:connector-curvature="0" /><path
       style="fill:#ff2a2a;stroke:#000000;stroke-width:0.80000001;stroke-miterlimit:4;stroke-opacity:1;stroke-dasharray:none;stroke-dashoffset:0"
       d="m 485.83104,431.37588 0.15779,-115.4187 -115.57639,-0.1576 -0.1576,115.73406 z"
       id="path4008"
       inkscape:connector-curvature="0" /><path
       style="fill:#500080;fill-opacity:0.92881356;stroke:#000000;stroke-width:0.80000001;stroke-miterlimit:4;stroke-opacity:1;stroke-dasharray:none;stroke-dashoffset:0"
       d="m -91.73558,430.90272 0.1578,-115.41872 -115.57639,-0.1576 -0.15759,115.73408 z"
       id="path4008-2"
       inkscape:connector-curvature="0" /><path
       style="fill:none;stroke:#000000;stroke-width:0.80000001;stroke-miterlimit:4;stroke-opacity:1;stroke-dasharray:none;stroke-dashoffset:0"
       d="m 485.35803,311.5422 -91.45198,0 0,-0.31536"
       id="path4028"
       inkscape:connector-curvature="0" /><path
       style="fill:#803300;fill-opacity:0.92881356;stroke:#000000;stroke-width:0.80000001;stroke-miterlimit:4;stroke-opacity:1;stroke-dasharray:none;stroke-dashoffset:0"
       d="m 393.59069,316.27248 12.61406,-257.957632 0.31536,52.506042 79.94165,-1.10375 -0.78836,206.55532 z"
       id="path4030"
       inkscape:connector-curvature="0" /><path
       style="fill:#803300;fill-opacity:0.92881356;stroke:#000000;stroke-width:0.80000001;stroke-miterlimit:4;stroke-opacity:1;stroke-dasharray:none;stroke-dashoffset:0"
       d="m 401.94753,141.25233 -3.62653,-0.1578 8.66449,-173.074323 -0.46534,90.60987 0,0 0.31534,1.89211 -0.31534,-1.2614"
       id="path4032"
       inkscape:connector-curvature="0"
       sodipodi:nodetypes="ccccccc" /><path
       style="fill:none;stroke:#000000;stroke-width:0.80000001;stroke-miterlimit:4;stroke-opacity:1;stroke-dasharray:none;stroke-dashoffset:0"
       d="m -206.24752,311.18742 91.45196,0 0,-0.31534"
       id="path4028-7"
       inkscape:connector-curvature="0"
       sodipodi:nodetypes="ccc" /><path
       style="fill:#803300;fill-opacity:0.92881356;stroke:#000000;stroke-width:0.80000001;stroke-miterlimit:4;stroke-opacity:1;stroke-dasharray:none;stroke-dashoffset:0"
       d="m -114.4802,315.9177 -12.61406,-257.957632 -0.31536,51.391122 -79.31095,0.6419 0.1576,205.92461 z"
       id="path4030-7"
       inkscape:connector-curvature="0"
       sodipodi:nodetypes="cccccc" /><path
       style="fill:#803300;fill-opacity:0.92881356;stroke:#000000;stroke-width:0.80000001;stroke-miterlimit:4;stroke-opacity:1;stroke-dasharray:none;stroke-dashoffset:0"
       d="m -122.83704,140.89752 3.62656,-0.1578 -8.5145,-172.024312 0.31534,89.55988 0,0 -0.31534,1.8921 0.31534,-1.26142"
       id="path4032-9"
       inkscape:connector-curvature="0"
       sodipodi:nodetypes="ccccccc" /><path
       sodipodi:type="arc"
       style="fill:#ffff00;stroke:#000000;stroke-width:0.5;stroke-miterlimit:4;stroke-opacity:1;stroke-dasharray:none;stroke-dashoffset:0"
       id="path4079"
       sodipodi:cx="267.02728"
       sodipodi:cy="609.59149"
       sodipodi:rx="57.419228"
       sodipodi:ry="57.140491"
       d="m 267.26955,552.45151 c 31.71148,0.13315 57.31025,25.82353 57.17645,57.38107 -0.13329,31.43554 -25.75773,56.86002 -57.34686,56.89936"
       transform="matrix(0,-1.6,-1.6,0,1114.5937,858.55662)"
       sodipodi:start="4.7166083"
       sodipodi:end="7.8527302"
       sodipodi:open="true" /><path
       sodipodi:type="arc"
       style="fill:#81ff00;fill-opacity:1;stroke:#000000;stroke-width:0.5;stroke-miterlimit:4;stroke-opacity:1;stroke-dasharray:none;stroke-dashoffset:0"
       id="path4108"
       sodipodi:cx="244.86792"
       sodipodi:cy="580.3244"
       sodipodi:rx="43.343155"
       sodipodi:ry="43.203789"
       d="m 245.15644,537.12157 c 23.93723,0.15883 43.21302,19.63016 43.05367,43.49043 -0.15769,23.61317 -19.30588,42.72565 -42.995,42.9148"
       transform="matrix(0,-1.6,-1.6,0,1067.0974,822.87866)"
       sodipodi:start="4.7190457"
       sodipodi:end="7.8459712"
       sodipodi:open="true" /><g
       id="g4674"
       transform="matrix(0,-2,2,0,-587.46826,788.9846)"><path
         sodipodi:open="true"
         sodipodi:end="6.7711376"
         sodipodi:start="2.653449"
         transform="matrix(0.78830124,0,0,-0.8,-17.573225,859.28149)"
         d="m 357.9144,583.64036 c -11.15217,-21.27792 -3.16733,-47.68648 17.83462,-58.98518 21.00196,-11.2987 47.06802,-3.20895 58.22019,18.06897 6.70362,12.79026 6.70507,28.11727 0.004,40.90883"
         sodipodi:ry="43.621887"
         sodipodi:rx="43.056149"
         sodipodi:cy="563.18225"
         sodipodi:cx="395.9418"
         id="path4145-3"
         style="fill:#ffff00;stroke:#000000;stroke-width:0.5;stroke-miterlimit:4;stroke-opacity:1;stroke-dasharray:none;stroke-dashoffset:0;marker-start:none"
         sodipodi:type="arc" /><path
         sodipodi:open="true"
         sodipodi:end="7.0907412"
         sodipodi:start="5.4917146"
         transform="matrix(0.8,0,0,-0.8,-3.9858979,845.70717)"
         d="m 335.57646,566.37667 c 12.92235,19.85275 13.04881,52.23709 0.28246,72.33244 -0.21752,0.3424 -0.43814,0.68001 -0.66179,1.01272"
         sodipodi:ry="51.147705"
         sodipodi:rx="32.890625"
         sodipodi:cy="602.76251"
         sodipodi:cx="312.46094"
         id="path4349"
         style="fill:none;stroke:#000000;stroke-width:0.5;stroke-miterlimit:4;stroke-opacity:1;stroke-dasharray:none;stroke-dashoffset:0"
         sodipodi:type="arc" /><path
         sodipodi:open="true"
         sodipodi:end="7.0907412"
         sodipodi:start="5.4917146"
         transform="matrix(-0.8,0,0,-0.8,593.05167,845.57108)"
         d="m 335.57646,566.37667 c 12.92235,19.85275 13.04881,52.23709 0.28246,72.33244 -0.21752,0.3424 -0.43814,0.68001 -0.66179,1.01272"
         sodipodi:ry="51.147705"
         sodipodi:rx="32.890625"
         sodipodi:cy="602.76251"
         sodipodi:cx="312.46094"
         id="path4349-0"
         style="fill:none;stroke:#000000;stroke-width:0.5;stroke-miterlimit:4;stroke-opacity:1;stroke-dasharray:none;stroke-dashoffset:0"
         sodipodi:type="arc" /><path
         sodipodi:open="true"
         sodipodi:end="6.7711376"
         sodipodi:start="2.6519309"
         transform="matrix(0.78830124,0,0,0.8,-17.718898,-132.98418)"
         d="m 357.57065,583.69882 c -11.29425,-21.26073 -3.2707,-47.68155 17.9211,-59.01254 21.19181,-11.33098 47.52695,-3.28133 58.82121,17.9794 6.80002,12.80063 6.8131,28.15503 0.0349,40.9673"
         sodipodi:ry="43.621887"
         sodipodi:rx="43.480453"
         sodipodi:cy="563.18225"
         sodipodi:cx="395.9418"
         id="path4145-3-4"
         style="fill:#ffff00;stroke:#000000;stroke-width:0.5;stroke-miterlimit:4;stroke-opacity:1;stroke-dasharray:none;stroke-dashoffset:0;marker-start:none"
         sodipodi:type="arc" /></g><path
       sodipodi:type="arc"
       style="fill:#81ff00;fill-opacity:1;stroke:#000000;stroke-width:0.5;stroke-miterlimit:4;stroke-opacity:1;stroke-dasharray:none;stroke-dashoffset:0;marker-start:none"
       id="path4145"
       sodipodi:cx="395.9418"
       sodipodi:cy="563.18225"
       sodipodi:rx="28.848982"
       sodipodi:ry="28.570244"
       d="m 368.85875,573.02464 c -5.48883,-14.81304 2.18709,-31.22797 17.14464,-36.66377 14.95756,-5.4358 31.53263,2.16596 37.02147,16.979 5.48883,14.81303 -2.18709,31.22796 -17.14465,36.66376 -14.94433,5.43099 -31.50635,-2.15232 -37.00901,-16.94546"
       transform="matrix(0,-1.6,-1.6,0,1132.2097,833.13608)"
       sodipodi:start="2.7898889"
       sodipodi:end="9.0718237"
       sodipodi:open="true" /><path
       sodipodi:type="arc"
       style="fill:#81ff00;fill-opacity:1;stroke:#000000;stroke-width:0.5;stroke-miterlimit:4;stroke-opacity:1;stroke-dasharray:none;stroke-dashoffset:0;marker-start:none"
       id="path4145-6"
       sodipodi:cx="395.9418"
       sodipodi:cy="563.18225"
       sodipodi:rx="28.848982"
       sodipodi:ry="28.570244"
       d="m 368.85875,573.02464 c -5.48883,-14.81304 2.18709,-31.22797 17.14464,-36.66377 14.95756,-5.4358 31.53263,2.16596 37.02147,16.979 5.48883,14.81303 -2.18709,31.22796 -17.14465,36.66376 -14.94433,5.43099 -31.50635,-2.15232 -37.00901,-16.94546"
       transform="matrix(0,-1.6,1.6,0,-853.82688,833.76193)"
       sodipodi:start="2.7898889"
       sodipodi:end="9.0718237"
       sodipodi:open="true" /><path
       style="fill:#803300;fill-opacity:0.92881356;stroke:#000000;stroke-width:0.80000001;stroke-miterlimit:4;stroke-opacity:1;stroke-dasharray:none;stroke-dashoffset:0"
       d="m 260.77538,229.06352 0,-58.42266 -57.9767,0 0,58.42266 z"
       id="path4408"
       inkscape:connector-curvature="0" /><path
       style="fill:#803300;fill-opacity:0.92881356;stroke:#000000;stroke-width:0.80000001;stroke-miterlimit:4;stroke-opacity:1;stroke-dasharray:none;stroke-dashoffset:0"
       d="m 75.24996,229.0635 0,-58.42265 -57.97671,0 0,58.42266 z"
       id="path4408-3"
       inkscape:connector-curvature="0" /><path
       style="fill:none;stroke:#000000;stroke-width:0.80000001;stroke-miterlimit:4;stroke-opacity:1;stroke-dasharray:0.8, 1.6;stroke-dashoffset:0"
       d="m 155.97133,125.82041 0.22301,-15.83211 -33.4481,-0.22298 0,16.05509 z"
       id="path4428"
       inkscape:connector-curvature="0" /><path
       style="fill:none;stroke:#000000;stroke-width:0.80000001;stroke-miterlimit:4;stroke-opacity:1;stroke-dasharray:0.8, 1.6;stroke-dashoffset:0"
       d="M 156.19433,125.37443 122.74625,109.31934"
       id="path4430"
       inkscape:connector-curvature="0" /><path
       style="fill:none;stroke:#000000;stroke-width:0.80000001;stroke-miterlimit:4;stroke-opacity:1;stroke-dasharray:0.8, 1.6;stroke-dashoffset:0"
       d="m 155.97133,110.21129 -33.22509,15.38612"
       id="path4432"
       inkscape:connector-curvature="0" /><path
       style="fill:none;stroke:#000000;stroke-width:0.80000001;stroke-miterlimit:4;stroke-opacity:1;stroke-dasharray:0.8, 1.6;stroke-dashoffset:0"
       d="m 398.09093,215.90382 -15.79872,-1.05128 -1.97322,33.39058 16.03308,0.84026 z"
       id="path4428-2"
       inkscape:connector-curvature="0" /><path
       style="fill:none;stroke:#000000;stroke-width:0.80000001;stroke-miterlimit:4;stroke-opacity:1;stroke-dasharray:0.8, 1.6;stroke-dashoffset:0"
       d="m 398.12593,215.23572 -17.78362,32.56202"
       id="path4430-9"
       inkscape:connector-curvature="0" /><path
       style="fill:none;stroke:#000000;stroke-width:0.80000001;stroke-miterlimit:4;stroke-opacity:1;stroke-dasharray:0.8, 1.6;stroke-dashoffset:0"
       d="m 382.28053,215.07524 13.62615,33.98478"
       id="path4432-9"
       inkscape:connector-curvature="0" /><path
       style="fill:none;stroke:#000000;stroke-width:0.80000001;stroke-miterlimit:4;stroke-opacity:1;stroke-dasharray:0.8, 1.6;stroke-dashoffset:0"
       d="m -119.58992,215.89823 15.79872,-1.05128 1.97324,33.39057 -16.03308,0.84026 z"
       id="path4428-2-9"
       inkscape:connector-curvature="0" /><path
       style="fill:none;stroke:#000000;stroke-width:0.80000001;stroke-miterlimit:4;stroke-opacity:1;stroke-dasharray:0.8, 1.6;stroke-dashoffset:0"
       d="m -119.62494,215.23015 17.78362,32.56199"
       id="path4430-9-3"
       inkscape:connector-curvature="0" /><path
       style="fill:none;stroke:#000000;stroke-width:0.80000001;stroke-miterlimit:4;stroke-opacity:1;stroke-dasharray:0.8, 1.6;stroke-dashoffset:0"
       d="m -103.77952,215.06965 -13.62614,33.98477"
       id="path4432-9-3"
       inkscape:connector-curvature="0" /><path
       sodipodi:type="arc"
       style="fill:none;stroke:#000000;stroke-width:0.5;stroke-miterlimit:4;stroke-opacity:1;stroke-dasharray:0.5, 1.5;stroke-dashoffset:0"
       id="path4506"
       sodipodi:cx="296.43372"
       sodipodi:cy="526.38934"
       sodipodi:rx="8.6407576"
       sodipodi:ry="8.5013905"
       d="m 304.06234,530.38182 c -2.24113,4.14522 -7.47337,5.71809 -11.68655,3.51311 -4.21317,-2.20498 -5.81183,-7.35284 -3.5707,-11.49806 2.24113,-4.14522 7.47338,-5.71809 11.68655,-3.51311 4.21045,2.20356 5.81024,7.34664 3.57441,11.49119"
       transform="matrix(0,-1.6,-1.6,0,1096.5318,790.09954)"
       sodipodi:start="0.48886706"
       sodipodi:end="6.7711376"
       sodipodi:open="true" /><path
       sodipodi:type="arc"
       style="fill:none;stroke:#000000;stroke-width:0.5;stroke-miterlimit:4;stroke-opacity:1;stroke-dasharray:0.5, 1.5;stroke-dashoffset:0"
       id="path4506-4"
       sodipodi:cx="296.43372"
       sodipodi:cy="526.38934"
       sodipodi:rx="0.90588599"
       sodipodi:ry="0.97556943"
       d="m 297.23349,526.8475 c -0.23496,0.47568 -0.7835,0.65617 -1.2252,0.40314 -0.44171,-0.25303 -0.60931,-0.84377 -0.37435,-1.31945 0.23496,-0.47568 0.7835,-0.65617 1.2252,-0.40314 0.44142,0.25286 0.60914,0.84305 0.37474,1.31866"
       transform="matrix(0,-1.6,-1.6,0,1096.8662,790.09952)"
       sodipodi:start="0.48886706"
       sodipodi:end="6.7711376"
       sodipodi:open="true" /><path
       sodipodi:type="arc"
       style="fill:none;stroke:#000000;stroke-width:0.5;stroke-miterlimit:4;stroke-opacity:1;stroke-dasharray:0.5, 1.5;stroke-dashoffset:0"
       id="path4506-0"
       sodipodi:cx="296.43372"
       sodipodi:cy="526.38934"
       sodipodi:rx="8.6407576"
       sodipodi:ry="8.5013905"
       d="m 304.06234,530.38182 c -2.24113,4.14522 -7.47337,5.71809 -11.68655,3.51311 -4.21317,-2.20498 -5.81183,-7.35284 -3.5707,-11.49806 2.24113,-4.14522 7.47338,-5.71809 11.68655,-3.51311 4.21045,2.20356 5.81024,7.34664 3.57441,11.49119"
       transform="matrix(0,-1.6,-1.6,0,866.40881,790.5455)"
       sodipodi:start="0.48886706"
       sodipodi:end="6.7711376"
       sodipodi:open="true" /><path
       sodipodi:type="arc"
       style="fill:none;stroke:#000000;stroke-width:0.5;stroke-miterlimit:4;stroke-opacity:1;stroke-dasharray:0.5, 1.5;stroke-dashoffset:0"
       id="path4506-4-2"
       sodipodi:cx="296.43372"
       sodipodi:cy="526.38934"
       sodipodi:rx="0.90588599"
       sodipodi:ry="0.97556943"
       d="m 297.23349,526.8475 c -0.23496,0.47568 -0.7835,0.65617 -1.2252,0.40314 -0.44171,-0.25303 -0.60931,-0.84377 -0.37435,-1.31945 0.23496,-0.47568 0.7835,-0.65617 1.2252,-0.40314 0.44142,0.25286 0.60914,0.84305 0.37474,1.31866"
       transform="matrix(0,-1.6,-1.6,0,866.74322,790.54548)"
       sodipodi:start="0.48886706"
       sodipodi:end="6.7711376"
       sodipodi:open="true" /><path
       sodipodi:type="arc"
       style="fill:none;stroke:#000000;stroke-width:0.5;stroke-miterlimit:4;stroke-opacity:1;stroke-dasharray:0.5, 1.5;stroke-dashoffset:0"
       id="path4506-8"
       sodipodi:cx="296.43372"
       sodipodi:cy="526.38934"
       sodipodi:rx="8.6407576"
       sodipodi:ry="8.5013905"
       d="m 304.06234,530.38182 c -2.24113,4.14522 -7.47337,5.71809 -11.68655,3.51311 -4.21317,-2.20498 -5.81183,-7.35284 -3.5707,-11.49806 2.24113,-4.14522 7.47338,-5.71809 11.68655,-3.51311 4.21045,2.20356 5.81024,7.34664 3.57441,11.49119"
       transform="matrix(0,-1.6,-1.6,0,1223.8575,511.36539)"
       sodipodi:start="0.48886706"
       sodipodi:end="6.7711376"
       sodipodi:open="true" /><path
       sodipodi:type="arc"
       style="fill:none;stroke:#000000;stroke-width:0.5;stroke-miterlimit:4;stroke-opacity:1;stroke-dasharray:0.5, 1.5;stroke-dashoffset:0"
       id="path4506-4-7"
       sodipodi:cx="296.43372"
       sodipodi:cy="526.38934"
       sodipodi:rx="0.90588599"
       sodipodi:ry="0.97556943"
       d="m 297.23349,526.8475 c -0.23496,0.47568 -0.7835,0.65617 -1.2252,0.40314 -0.44171,-0.25303 -0.60931,-0.84377 -0.37435,-1.31945 0.23496,-0.47568 0.7835,-0.65617 1.2252,-0.40314 0.44142,0.25286 0.60914,0.84305 0.37474,1.31866"
       transform="matrix(0,-1.6,-1.6,0,1224.1919,511.36537)"
       sodipodi:start="0.48886706"
       sodipodi:end="6.7711376"
       sodipodi:open="true" /><path
       sodipodi:type="arc"
       style="fill:none;stroke:#000000;stroke-width:0.5;stroke-miterlimit:4;stroke-opacity:1;stroke-dasharray:0.5, 1.5;stroke-dashoffset:0"
       id="path4506-5"
       sodipodi:cx="296.43372"
       sodipodi:cy="526.38934"
       sodipodi:rx="8.6407576"
       sodipodi:ry="8.5013905"
       d="m 304.06234,530.38182 c -2.24113,4.14522 -7.47337,5.71809 -11.68655,3.51311 -4.21317,-2.20498 -5.81183,-7.35284 -3.5707,-11.49806 2.24113,-4.14522 7.47338,-5.71809 11.68655,-3.51311 4.21045,2.20356 5.81024,7.34664 3.57441,11.49119"
       transform="matrix(0,-1.6,-1.6,0,738.63711,511.81137)"
       sodipodi:start="0.48886706"
       sodipodi:end="6.7711376"
       sodipodi:open="true" /><path
       sodipodi:type="arc"
       style="fill:none;stroke:#000000;stroke-width:0.5;stroke-miterlimit:4;stroke-opacity:1;stroke-dasharray:0.5, 1.5;stroke-dashoffset:0"
       id="path4506-4-8"
       sodipodi:cx="296.43372"
       sodipodi:cy="526.38934"
       sodipodi:rx="0.90588599"
       sodipodi:ry="0.97556943"
       d="m 297.23349,526.8475 c -0.23496,0.47568 -0.7835,0.65617 -1.2252,0.40314 -0.44171,-0.25303 -0.60931,-0.84377 -0.37435,-1.31945 0.23496,-0.47568 0.7835,-0.65617 1.2252,-0.40314 0.44142,0.25286 0.60914,0.84305 0.37474,1.31866"
       transform="matrix(0,-1.6,-1.6,0,738.97151,511.81135)"
       sodipodi:start="0.48886706"
       sodipodi:end="6.7711376"
       sodipodi:open="true" /><path
       sodipodi:type="arc"
       style="fill:none;stroke:#000000;stroke-width:0.5;stroke-miterlimit:4;stroke-opacity:1;stroke-dasharray:0.5, 1.5;stroke-dashoffset:0"
       id="path4506-1"
       sodipodi:cx="296.43372"
       sodipodi:cy="526.38934"
       sodipodi:rx="8.6407576"
       sodipodi:ry="8.5013905"
       d="m 304.06234,530.38182 c -2.24113,4.14522 -7.47337,5.71809 -11.68655,3.51311 -4.21317,-2.20498 -5.81183,-7.35284 -3.5707,-11.49806 2.24113,-4.14522 7.47338,-5.71809 11.68655,-3.51311 4.21045,2.20356 5.81024,7.34664 3.57441,11.49119"
       transform="matrix(0,-1.6,-1.6,0,1002.2081,510.91941)"
       sodipodi:start="0.48886706"
       sodipodi:end="6.7711376"
       sodipodi:open="true" /><path
       sodipodi:type="arc"
       style="fill:none;stroke:#000000;stroke-width:0.5;stroke-miterlimit:4;stroke-opacity:1;stroke-dasharray:0.5, 1.5;stroke-dashoffset:0"
       id="path4506-4-6"
       sodipodi:cx="296.43372"
       sodipodi:cy="526.38934"
       sodipodi:rx="0.90588599"
       sodipodi:ry="0.97556943"
       d="m 297.23349,526.8475 c -0.23496,0.47568 -0.7835,0.65617 -1.2252,0.40314 -0.44171,-0.25303 -0.60931,-0.84377 -0.37435,-1.31945 0.23496,-0.47568 0.7835,-0.65617 1.2252,-0.40314 0.44142,0.25286 0.60914,0.84305 0.37474,1.31866"
       transform="matrix(0,-1.6,-1.6,0,1002.5425,510.91939)"
       sodipodi:start="0.48886706"
       sodipodi:end="6.7711376"
       sodipodi:open="true" /><path
       sodipodi:type="arc"
       style="fill:none;stroke:#000000;stroke-width:0.5;stroke-miterlimit:4;stroke-opacity:1;stroke-dasharray:0.5, 1.5;stroke-dashoffset:0"
       id="path4506-15"
       sodipodi:cx="296.43372"
       sodipodi:cy="526.38934"
       sodipodi:rx="8.6407576"
       sodipodi:ry="8.5013905"
       d="m 304.06234,530.38182 c -2.24113,4.14522 -7.47337,5.71809 -11.68655,3.51311 -4.21317,-2.20498 -5.81183,-7.35284 -3.5707,-11.49806 2.24113,-4.14522 7.47338,-5.71809 11.68655,-3.51311 4.21045,2.20356 5.81024,7.34664 3.57441,11.49119"
       transform="matrix(0,-1.6,-1.6,0,983.03117,532.54919)"
       sodipodi:start="0.48886706"
       sodipodi:end="6.7711376"
       sodipodi:open="true" /><path
       sodipodi:type="arc"
       style="fill:none;stroke:#000000;stroke-width:0.5;stroke-miterlimit:4;stroke-opacity:1;stroke-dasharray:0.5, 1.5;stroke-dashoffset:0"
       id="path4506-4-0"
       sodipodi:cx="296.43372"
       sodipodi:cy="526.38934"
       sodipodi:rx="0.90588599"
       sodipodi:ry="0.97556943"
       d="m 297.23349,526.8475 c -0.23496,0.47568 -0.7835,0.65617 -1.2252,0.40314 -0.44171,-0.25303 -0.60931,-0.84377 -0.37435,-1.31945 0.23496,-0.47568 0.7835,-0.65617 1.2252,-0.40314 0.44142,0.25286 0.60914,0.84305 0.37474,1.31866"
       transform="matrix(0,-1.6,-1.6,0,983.36557,532.54917)"
       sodipodi:start="0.48886706"
       sodipodi:end="6.7711376"
       sodipodi:open="true" /><path
       sodipodi:type="arc"
       style="fill:none;stroke:#000000;stroke-width:0.5;stroke-miterlimit:4;stroke-opacity:1;stroke-dasharray:0.5, 1.5;stroke-dashoffset:0"
       id="path4506-3"
       sodipodi:cx="296.43372"
       sodipodi:cy="526.38934"
       sodipodi:rx="8.6407576"
       sodipodi:ry="8.5013905"
       d="m 304.06234,530.38182 c -2.24113,4.14522 -7.47337,5.71809 -11.68655,3.51311 -4.21317,-2.20498 -5.81183,-7.35284 -3.5707,-11.49806 2.24113,-4.14522 7.47338,-5.71809 11.68655,-3.51311 4.21045,2.20356 5.81024,7.34664 3.57441,11.49119"
       transform="matrix(0,-1.6,-1.6,0,980.57827,490.40459)"
       sodipodi:start="0.48886706"
       sodipodi:end="6.7711376"
       sodipodi:open="true" /><path
       sodipodi:type="arc"
       style="fill:none;stroke:#000000;stroke-width:0.5;stroke-miterlimit:4;stroke-opacity:1;stroke-dasharray:0.5, 1.5;stroke-dashoffset:0"
       id="path4506-4-3"
       sodipodi:cx="296.43372"
       sodipodi:cy="526.38934"
       sodipodi:rx="0.90588599"
       sodipodi:ry="0.97556943"
       d="m 297.23349,526.8475 c -0.23496,0.47568 -0.7835,0.65617 -1.2252,0.40314 -0.44171,-0.25303 -0.60931,-0.84377 -0.37435,-1.31945 0.23496,-0.47568 0.7835,-0.65617 1.2252,-0.40314 0.44142,0.25286 0.60914,0.84305 0.37474,1.31866"
       transform="matrix(0,-1.6,-1.6,0,980.91267,490.40457)"
       sodipodi:start="0.48886706"
       sodipodi:end="6.7711376"
       sodipodi:open="true" /><path
       sodipodi:type="arc"
       style="fill:none;stroke:#000000;stroke-width:0.5;stroke-miterlimit:4;stroke-opacity:1;stroke-dasharray:0.5, 1.5;stroke-dashoffset:0"
       id="path4506-2"
       sodipodi:cx="296.43372"
       sodipodi:cy="526.38934"
       sodipodi:rx="8.6407576"
       sodipodi:ry="8.5013905"
       d="m 304.06234,530.38182 c -2.24113,4.14522 -7.47337,5.71809 -11.68655,3.51311 -4.21317,-2.20498 -5.81183,-7.35284 -3.5707,-11.49806 2.24113,-4.14522 7.47338,-5.71809 11.68655,-3.51311 4.21045,2.20356 5.81024,7.34664 3.57441,11.49119"
       transform="matrix(0,-1.6,-1.6,0,960.06347,512.48033)"
       sodipodi:start="0.48886706"
       sodipodi:end="6.7711376"
       sodipodi:open="true" /><path
       sodipodi:type="arc"
       style="fill:none;stroke:#000000;stroke-width:0.5;stroke-miterlimit:4;stroke-opacity:1;stroke-dasharray:0.5, 1.5;stroke-dashoffset:0"
       id="path4506-4-1"
       sodipodi:cx="296.43372"
       sodipodi:cy="526.38934"
       sodipodi:rx="0.90588599"
       sodipodi:ry="0.97556943"
       d="m 297.23349,526.8475 c -0.23496,0.47568 -0.7835,0.65617 -1.2252,0.40314 -0.44171,-0.25303 -0.60931,-0.84377 -0.37435,-1.31945 0.23496,-0.47568 0.7835,-0.65617 1.2252,-0.40314 0.44142,0.25286 0.60914,0.84305 0.37474,1.31866"
       transform="matrix(0,-1.6,-1.6,0,960.39787,512.48031)"
       sodipodi:start="0.48886706"
       sodipodi:end="6.7711376"
       sodipodi:open="true" /><path
       style="fill:#ffff00;fill-opacity:1;fill-rule:nonzero;stroke:#ffff00;stroke-width:0.00295642;stroke-miterlimit:4;stroke-opacity:1;stroke-dasharray:none;stroke-dashoffset:0"
       d="m 175.45079,228.8219 c 1.94448,-0.004 4.48773,-0.01 5.65169,-0.012 l 2.11632,-0.006 0,-0.0328 0,-0.0328 -5.65169,0 -5.6517,0 0,0.046 0,0.046 3.53538,-0.006 z"
       id="path4712"
       inkscape:connector-curvature="0" /><path
       style="fill:#ffff00;fill-opacity:1;fill-rule:nonzero;stroke:#ffff00;stroke-width:0.18921098;stroke-miterlimit:4;stroke-opacity:1;stroke-dasharray:none;stroke-dashoffset:0"
       d="m 83.34596,170.88727 c 3.38854,4.11772 7.32118,11.9546 8.86182,17.65969 1.71526,6.35168 1.53628,18.46864 -0.36292,24.57026 -1.8817,6.04532 -4.97113,12.15657 -8.2293,16.27848 l -2.57956,3.26339 0,13.24485 0,13.24488 6.4647,-3.40282 c 15.17518,-7.98778 31.9159,-11.7714 52.1907,-11.79578 19.08616,-0.023 35.77631,3.63388 50.67892,11.1038 l 6.71508,3.36596 0,-13.3489 0,-13.3489 -1.76304,-2.19347 c -5.5053,-6.84948 -9.01736,-15.23517 -10.19306,-24.33789 -1.53074,-11.85148 1.77722,-24.1389 9.15342,-34.00056 l 2.80268,-3.74704 0,-13.15208 c 0,-7.23362 -0.21286,-13.05488 -0.47304,-12.93612 -0.26016,0.11881 -2.8123,1.42165 -5.67142,2.89531 -15.59243,8.03669 -31.63027,11.62764 -51.88025,11.61621 -20.6408,-0.012 -39.42842,-4.46804 -53.82286,-12.7667 -2.37196,-1.3675 -4.42964,-2.48633 -4.5726,-2.48633 -0.143,0 -0.24058,6.0311 -0.2169,13.40244 l 0.043,13.40246 2.85458,3.46886 -2e-5,0 z m 97.18348,57.56111 c 1.64772,0.13 0.29958,0.23623 -2.99584,0.23623 -3.29542,0 -4.64356,-0.1062 -2.99584,-0.23623 1.64772,-0.12999 4.34396,-0.12999 5.99168,0 z"
       id="path4724"
       inkscape:connector-curvature="0" /><path
       style="fill:#ffff00;fill-opacity:1;fill-rule:nonzero;stroke:#ffff00;stroke-width:0.01182568;stroke-miterlimit:4;stroke-opacity:1;stroke-dasharray:none;stroke-dashoffset:0"
       d="m 80.65202,259.96646 c 0.0922,-0.058 0.3183,-0.20618 0.50258,-0.3296 0.93423,-0.62566 3.19924,-1.99192 4.5049,-2.71742 0.36387,-0.20218 0.65355,-0.37562 0.64374,-0.3854 -0.01,-0.01 -1.21552,0.6134 -2.67936,1.38492 -1.46384,0.77152 -2.67148,1.40278 -2.68366,1.40278 -0.012,0 -0.022,-6.00894 -0.0216,-13.35318 l 5.2e-4,-13.35315 1.26542,-1.59646 c 1.97829,-2.49582 2.77068,-3.58492 3.7284,-5.12449 0.68936,-1.10816 1.81524,-3.09719 1.7756,-3.13685 -0.012,-0.012 -0.1404,0.1986 -0.28827,0.46492 -1.73198,3.11746 -4.26303,6.57938 -6.61027,9.04139 l -0.3055,0.32046 0,13.74364 0,13.74366 0.1676,-0.1052 0,0 z"
       id="path4726"
       inkscape:connector-curvature="0" /><path
       style="fill:#ffff00;fill-opacity:1;fill-rule:nonzero;stroke:#ffff00;stroke-width:0.01182568;stroke-miterlimit:4;stroke-opacity:1;stroke-dasharray:none;stroke-dashoffset:0"
       d="m 80.41596,142.92461 c 0.016,-0.90537 0.0924,-2.19898 0.1362,-2.32448 0.0228,-0.0658 0.066,-0.1196 0.0956,-0.1196 0.1362,0 1.7214,0.85606 4.43218,2.39349 1.81048,1.02682 2.60286,1.45323 4.11928,2.21663 4.5496,2.29038 9.39494,4.20256 14.6246,5.77148 1.36732,0.41022 2.27296,0.66232 2.29606,0.6392 0.066,-0.066 -0.0768,-0.14061 -0.48848,-0.25498 -1.57138,-0.4367 -4.62168,-1.42278 -6.49666,-2.10022 -6.63788,-2.39833 -12.9025,-5.46224 -18.14474,-8.87433 -0.2763,-0.1798 -0.52454,-0.34052 -0.55164,-0.3571 -0.0392,-0.024 -0.0476,0.33554 -0.0406,1.75592 0.004,0.98232 0.012,1.54656 0.018,1.25388 z"
       id="path4728"
       inkscape:connector-curvature="0" /><path
       style="fill:#ffff00;fill-opacity:1;fill-rule:nonzero;stroke:#ffff00;stroke-width:0.01182568;stroke-miterlimit:4;stroke-opacity:1;stroke-dasharray:none;stroke-dashoffset:0"
       d="m 80.88966,168.34967 c 1.44398,1.54936 3.133,3.64614 4.16782,5.174 0.172,0.25392 0.32114,0.45322 0.33144,0.44292 0.0448,-0.0448 -1.2325,-1.86812 -1.86386,-2.66051 -0.47742,-0.59916 -2.9195,-3.57594 -3.02276,-3.68458 -0.0728,-0.0766 -0.074,-0.0756 -0.0728,0.0788 9.2e-4,0.1448 0.0356,0.1936 0.46024,0.64934 l 0,0 z"
       id="path4730"
       inkscape:connector-curvature="0" /><path
       style="fill:#ffff00;fill-opacity:1;fill-rule:nonzero;stroke:#ffff00;stroke-width:0.01182568;stroke-miterlimit:4;stroke-opacity:1;stroke-dasharray:none;stroke-dashoffset:0"
       d="m 61.49665,155.94879 c 5.80856,1.90556 11.23652,4.98274 15.85629,8.98908 0.78268,0.67876 1.2934,1.15474 2.17787,2.02978 l 0.85739,0.84819 0.01,-1.24052 0.01,-1.24052 0.0206,1.07214 0.0206,1.0721 1.4191,1.72486 c 1.72896,2.1015 1.92604,2.34962 2.4969,3.14354 2.19674,3.05516 4.62,7.6032 6.25574,11.74094 l 0.22984,0.58142 7.63994,0 7.63994,0 0,-16.54876 0,-16.54876 -0.60114,-0.1684 c -3.14522,-0.88124 -6.68326,-2.07542 -9.59562,-3.23878 -3.85718,-1.54074 -6.98964,-3.0503 -10.73472,-5.17306 -3.44154,-1.95074 -4.50308,-2.51388 -4.58634,-2.43304 -0.1068,0.1036 -0.1774,2.2552 -0.2195,6.68256 l -0.0292,3.07466 -0.008,-5.28214 c -0.008,-4.857 -0.012,-5.27262 -0.071,-5.16388 -0.0346,0.065 -0.0674,0.1236 -0.073,0.1304 -0.006,0.006 -0.49008,-0.22792 -1.07658,-0.5213 -4.4394,-2.22088 -9.00426,-3.93208 -13.82288,-5.18174 -1.13156,-0.29344 -3.0526,-0.73372 -3.80392,-0.87178 -0.24934,-0.0458 -0.48438,-0.0924 -0.5223,-0.1036 -0.0656,-0.02 -0.069,0.53278 -0.069,11.20782 l 0,11.22822 0.58144,0.1908 0,0 z"
       id="path4732"
       inkscape:connector-curvature="0" /><path
       style="fill:#ffff00;fill-opacity:1;fill-rule:nonzero;stroke:#ffff00;stroke-width:0.01182568;stroke-miterlimit:4;stroke-opacity:1;stroke-dasharray:none;stroke-dashoffset:0"
       d="m 80.37732,143.9786 c 0.01,-0.0598 0.01,-0.1486 -5.6e-4,-0.197 -0.01,-0.0484 -0.016,5.4e-4 -0.016,0.10901 3e-4,0.10839 0.008,0.14819 0.016,0.0882 z"
       id="path4734"
       inkscape:connector-curvature="0" /><path
       style="fill:#ffff00;fill-opacity:1;fill-rule:nonzero;stroke:#ffff00;stroke-width:0.001875;stroke-miterlimit:4;stroke-opacity:1;stroke-dasharray:none;stroke-dashoffset:0"
       d="m 80.93622,150.7819 3.58438,0 0,-4.09946 0,-4.09948 -0.0452,-0.0262 c -0.1004,-0.058 -0.82394,-0.46704 -1.06306,-0.6008 l -0.25524,-0.14281 -1.3432,0 -1.3432,0 -4e-5,0.0266 c -4e-5,0.014 -0.004,0.094 -0.006,0.1766 -0.026,0.64312 -0.0546,2.00344 -0.072,3.4219 -0.004,0.43482 -0.012,0.80046 -0.012,0.8125 -0.001,0.012 -0.001,-0.50266 4e-5,-1.14376 10e-4,-0.6411 0.002,-1.19376 0.002,-1.22812 0,-0.0344 -0.001,-0.51322 -0.004,-1.06406 l -0.004,-1.00158 -1.51238,0 -1.51238,0 0,4.48438 0,4.48438 3.58438,0 z"
       id="path4736"
       inkscape:connector-curvature="0" /><path
       style="fill:#ffff00;fill-opacity:1;fill-rule:nonzero;stroke:#ffff00;stroke-width:0.001875;stroke-miterlimit:4;stroke-opacity:1;stroke-dasharray:none;stroke-dashoffset:0"
       d="m 80.3884,145.08239 c 0.008,-0.52824 0.0242,-1.45353 0.031,-1.71877 0.006,-0.23652 0.006,-0.38635 0.002,-0.36683 -0.002,0.006 -0.006,0.01 -0.01,0.01 -0.01,-0.004 -0.014,-0.16701 -0.016,-0.5983 -9.2e-4,-0.19421 -0.004,-0.40796 -0.006,-0.47499 -0.004,-0.091 -0.004,1.54224 0,1.94689 2.8e-4,0.0344 -7.4e-4,0.40137 -0.002,0.81562 -0.002,0.58082 -0.002,0.66948 0.002,0.3875 z"
       id="path4738"
       inkscape:connector-curvature="0" /><path
       style="fill:#ffff00;fill-opacity:1;fill-rule:nonzero;stroke:#ffff00;stroke-width:0.0075;stroke-miterlimit:4;stroke-opacity:1;stroke-dasharray:none;stroke-dashoffset:0"
       d="m 190.0166,144.59602 c 0.024,-0.01 0.955,-0.48482 2.06876,-1.05688 1.11376,-0.57206 2.5875,-1.324 3.275,-1.67096 1.31042,-0.66138 1.31856,-0.66458 1.38366,-0.54294 0.1412,0.2638 0.2705,2.17126 0.3539,5.21966 0.068,2.48568 0.0802,4.03368 0.0924,11.71876 0.012,6.98932 0.018,8.21876 0.0478,8.21876 0.0296,0 0.0348,-1.92872 0.0348,-13.025 0,-7.16376 -0.004,-13.025 -0.012,-13.025 -0.006,0 -0.23202,0.1412 -0.50264,0.31392 -1.68372,1.07422 -4.19582,2.50922 -6.14302,3.50914 -0.35406,0.1818 -0.64374,0.3366 -0.64374,0.34394 0,0.008 0.02,0.006 0.0436,-0.004 z"
       id="path4740"
       inkscape:connector-curvature="0" /><path
       style="fill:#ffff00;fill-opacity:1;fill-rule:nonzero;stroke:#ffff00;stroke-width:0.0075;stroke-miterlimit:4;stroke-opacity:1;stroke-dasharray:none;stroke-dashoffset:0"
       d="m 187.6295,183.95264 c 0.0464,0 0.0658,-0.0204 0.0892,-0.0938 0.016,-0.0516 0.1402,-0.38626 0.27484,-0.74377 1.00704,-2.67426 2.13888,-5.03604 3.58094,-7.47234 1.52454,-2.57568 3.40212,-5.1309 5.3605,-7.29517 l 0.33256,-0.36753 0,-0.7527 c 0,-0.46726 -0.01,-0.74716 -0.0236,-0.7381 -0.012,0.008 -0.0276,-0.0428 -0.033,-0.1172 -0.004,-0.0724 -0.012,0.1478 -0.014,0.48968 l -0.004,0.62156 -1.43328,1.91594 c -1.96916,2.63226 -2.23998,3.00674 -2.9722,4.10988 -2.10892,3.17724 -3.95958,6.8682 -5.17068,10.3123 l -0.0462,0.1312 0.0592,0 z"
       id="path4742"
       inkscape:connector-curvature="0" /><path
       style="fill:#ffff00;fill-opacity:1;fill-rule:nonzero;stroke:#ffff00;stroke-width:0.0075;stroke-miterlimit:4;stroke-opacity:1;stroke-dasharray:none;stroke-dashoffset:0"
       d="m 187.61948,215.3363 c 1.45472,4.08972 3.1526,7.50596 5.39878,10.8625 0.96246,1.43826 1.5467,2.21522 3.3802,4.49518 l 0.79374,0.98702 0,9.47766 c 0,8.4079 0.004,9.47764 0.0374,9.47764 0.0332,0 0.0374,-1.09194 0.0374,-9.67748 l 0,-9.67744 -0.38224,-0.4288 c -4.03152,-4.52216 -7.11096,-9.7144 -9.16504,-15.45306 -0.1998,-0.55808 -0.28164,-0.73522 -0.27576,-0.59654 0.001,0.0252 0.08,0.2652 0.1754,0.53332 z"
       id="path4744"
       inkscape:connector-curvature="0" /><path
       style="fill:#ffff00;fill-opacity:1;fill-rule:nonzero;stroke:#ffff00;stroke-width:0.0075;stroke-miterlimit:4;stroke-opacity:1;stroke-dasharray:none;stroke-dashoffset:0"
       d="m 180.58236,251.0403 c 0.0378,0.014 0.28812,0.1088 0.55626,0.20928 0.7448,0.2792 2.3476,0.9192 3.21736,1.28472 4.04324,1.6992 7.89584,3.64892 11.4012,5.7699 0.68682,0.41558 0.9019,0.54866 1.37518,0.85098 l 0.1312,0.0838 0,-4.31474 c 0,-2.66006 -0.01,-4.30922 -0.0234,-4.30034 -0.012,0.008 -0.028,-0.016 -0.0338,-0.0548 -0.006,-0.038 -0.012,1.75038 -0.014,3.97428 l -0.004,4.04348 -4.09374,-2.04484 c -3.8882,-1.94216 -5.0439,-2.50398 -6.50626,-3.16296 -1.71478,-0.7727 -3.68958,-1.59134 -5.4375,-2.25408 -0.3025,-0.1148 -0.56968,-0.21628 -0.59376,-0.22574 -0.0348,-0.014 -0.0438,-0.004 -0.0438,0.0486 0,0.0486 0.018,0.0726 0.0688,0.0924 l 0,0 z"
       id="path4746"
       inkscape:connector-curvature="0" /><path
       style="fill:#ffff00;fill-opacity:1;fill-rule:nonzero;stroke:#ffff00;stroke-width:0.001875;stroke-miterlimit:4;stroke-opacity:1;stroke-dasharray:none;stroke-dashoffset:0"
       d="m 174.72041,228.54576 c 0.75114,0.0286 2.22194,0.0452 3.35159,0.0378 l 0.62656,-0.004 0,-0.0578 0,-0.0578 -0.0734,-0.004 c -0.1218,-0.008 -1.98486,-0.006 -2.31406,0.004 -0.65754,0.018 -1.19772,0.0424 -1.60312,0.0722 l -0.1062,0.008 0.1188,0.004 0,0 z"
       id="path4748"
       inkscape:connector-curvature="0" /><path
       style="fill:#ffff00;fill-opacity:1;fill-rule:nonzero;stroke:#ffff00;stroke-width:0.001875;stroke-miterlimit:4;stroke-opacity:1;stroke-dasharray:none;stroke-dashoffset:0"
       d="m 178.9091,228.5783 c 0.1126,-0.002 0.37486,-0.006 0.58282,-0.01 0.34954,-0.006 0.53278,-0.012 0.85,-0.0228 l 0.122,-0.004 -0.103,-0.008 c -0.3657,-0.0272 -1.00178,-0.0564 -1.48282,-0.0684 l -0.1734,-0.004 0,0.0608 0,0.0608 0.20468,-0.004 0,0 z"
       id="path4750"
       inkscape:connector-curvature="0" /><path
       style="fill:#b3b3b3;fill-opacity:1;fill-rule:nonzero;stroke:#b3b3b3;stroke-width:0.12;stroke-miterlimit:4;stroke-opacity:1;stroke-dasharray:none;stroke-dashoffset:0"
       d="m 407.12997,105.51434 0.1506,4.76288 15.88678,-0.26188 c 8.7377,-0.144 25.60676,-0.36038 37.48676,-0.48078 11.88,-0.1204 22.365,-0.31184 23.3,-0.4255 l 1.7,-0.20662 0,-70.175473 0,-70.1755 -38.952,0 -38.95198,0 -0.24628,24.9 c -0.32142,32.49866 -0.56646,105.96485 -0.37376,112.062883 l 0,0 z"
       id="path4764"
       inkscape:connector-curvature="0" /><path
       style="fill:#b3b3b3;fill-opacity:1;fill-rule:nonzero;stroke:#b3b3b3;stroke-width:0.08485282;stroke-miterlimit:4;stroke-opacity:1;stroke-dasharray:none;stroke-dashoffset:0"
       d="m -193.66741,109.37764 c 6.98734,-0.0996 24.61934,-0.26395 39.18225,-0.36491 l 26.47802,-0.1836 0.21,-24.177933 c 0.167,-19.235279 0.1376,-24.222609 -0.144,-24.396669 -0.23784,-0.147 -0.29022,-0.52982 -0.1596,-1.16666 0.1068,-0.52134 0.1052,-21.08982 -0.004,-45.707741 l -0.1982,-44.75984 -38.84599,0 -38.84598,0 -9e-5,26.092241 c -7e-5,14.35072 -0.0848,46.061919 -0.1884,70.46932 l -0.1884,44.377082 12.70421,-0.1814 z"
       id="path4766"
       inkscape:connector-curvature="0" /></g></svg>